<mxfile host="app.diagrams.net" modified="2024-04-09T02:08:48.753Z" agent="Mozilla/5.0 (Windows NT 10.0; Win64; x64) AppleWebKit/537.36 (KHTML, like Gecko) Chrome/123.0.0.0 Safari/537.36" etag="3tH6MJjo7ZGt5H6DPQeJ" version="24.2.3" type="google">
  <diagram name="Page-1" id="9yo1QoHKo-QB-MBc7F7K">
    <mxGraphModel grid="0" page="1" gridSize="10" guides="1" tooltips="1" connect="1" arrows="1" fold="1" pageScale="1" pageWidth="850" pageHeight="1100" math="0" shadow="0">
      <root>
        <mxCell id="0" />
        <mxCell id="1" parent="0" />
        <mxCell id="2yu0kGT02CQyV1hWwECd-1" value="" style="endArrow=none;dashed=1;html=1;dashPattern=1 3;strokeWidth=2;rounded=0;" edge="1" parent="1">
          <mxGeometry width="50" height="50" relative="1" as="geometry">
            <mxPoint x="218" y="590" as="sourcePoint" />
            <mxPoint x="218" y="155" as="targetPoint" />
          </mxGeometry>
        </mxCell>
        <mxCell id="SKhjYYuooIk0SckAg690-3" value="Frontend" style="text;strokeColor=none;fillColor=none;html=1;fontSize=24;fontStyle=1;verticalAlign=middle;align=center;" vertex="1" parent="1">
          <mxGeometry x="71" y="140" width="100" height="40" as="geometry" />
        </mxCell>
        <mxCell id="SKhjYYuooIk0SckAg690-17" style="edgeStyle=orthogonalEdgeStyle;rounded=0;orthogonalLoop=1;jettySize=auto;html=1;entryX=0.5;entryY=0;entryDx=0;entryDy=0;" edge="1" parent="1" source="SKhjYYuooIk0SckAg690-4" target="SKhjYYuooIk0SckAg690-10">
          <mxGeometry relative="1" as="geometry" />
        </mxCell>
        <mxCell id="SKhjYYuooIk0SckAg690-4" value="" style="shape=cylinder3;whiteSpace=wrap;html=1;boundedLbl=1;backgroundOutline=1;size=15;rotation=90;fontSize=15;fillColor=#dae8fc;strokeColor=#6c8ebf;" vertex="1" parent="1">
          <mxGeometry x="488" y="232.5" width="90" height="115" as="geometry" />
        </mxCell>
        <mxCell id="SKhjYYuooIk0SckAg690-6" value="Data Ingestion Pipeline" style="text;html=1;strokeColor=none;fillColor=none;align=center;verticalAlign=middle;whiteSpace=wrap;rounded=0;fontSize=15;" vertex="1" parent="1">
          <mxGeometry x="498" y="275" width="60" height="30" as="geometry" />
        </mxCell>
        <mxCell id="SKhjYYuooIk0SckAg690-9" value="" style="endArrow=none;dashed=1;html=1;dashPattern=1 3;strokeWidth=2;rounded=0;" edge="1" parent="1">
          <mxGeometry width="50" height="50" relative="1" as="geometry">
            <mxPoint x="692" y="584" as="sourcePoint" />
            <mxPoint x="692" y="144" as="targetPoint" />
          </mxGeometry>
        </mxCell>
        <mxCell id="SKhjYYuooIk0SckAg690-10" value="Vector Database" style="shape=datastore;whiteSpace=wrap;html=1;fontSize=16;fillColor=#d5e8d4;strokeColor=#82b366;" vertex="1" parent="1">
          <mxGeometry x="601" y="464.5" width="77" height="65.5" as="geometry" />
        </mxCell>
        <mxCell id="SKhjYYuooIk0SckAg690-21" style="edgeStyle=orthogonalEdgeStyle;rounded=0;orthogonalLoop=1;jettySize=auto;html=1;startArrow=classic;startFill=1;" edge="1" parent="1" source="SKhjYYuooIk0SckAg690-12" target="SKhjYYuooIk0SckAg690-20">
          <mxGeometry relative="1" as="geometry" />
        </mxCell>
        <mxCell id="SKhjYYuooIk0SckAg690-12" value="Server" style="rounded=0;whiteSpace=wrap;html=1;fontSize=15;fillColor=#dae8fc;strokeColor=#6c8ebf;" vertex="1" parent="1">
          <mxGeometry x="262" y="330" width="120" height="60" as="geometry" />
        </mxCell>
        <mxCell id="2yu0kGT02CQyV1hWwECd-3" value="Backend" style="text;strokeColor=none;fillColor=none;html=1;fontSize=24;fontStyle=1;verticalAlign=middle;align=center;" vertex="1" parent="1">
          <mxGeometry x="278" y="144" width="100" height="40" as="geometry" />
        </mxCell>
        <mxCell id="SKhjYYuooIk0SckAg690-16" style="edgeStyle=orthogonalEdgeStyle;rounded=0;orthogonalLoop=1;jettySize=auto;html=1;entryX=0.5;entryY=1;entryDx=0;entryDy=0;entryPerimeter=0;exitX=1;exitY=0.25;exitDx=0;exitDy=0;" edge="1" parent="1" source="SKhjYYuooIk0SckAg690-12" target="SKhjYYuooIk0SckAg690-4">
          <mxGeometry relative="1" as="geometry" />
        </mxCell>
        <mxCell id="SKhjYYuooIk0SckAg690-20" value="LLM" style="rounded=0;whiteSpace=wrap;html=1;fontSize=16;fillColor=#e1d5e7;strokeColor=#9673a6;" vertex="1" parent="1">
          <mxGeometry x="739" y="330" width="120" height="60" as="geometry" />
        </mxCell>
        <mxCell id="w-meDZPND8y7SrGFHvBi-2" value="" style="endArrow=none;dashed=1;html=1;dashPattern=1 3;strokeWidth=2;rounded=0;" edge="1" parent="1">
          <mxGeometry width="50" height="50" relative="1" as="geometry">
            <mxPoint x="409" y="584" as="sourcePoint" />
            <mxPoint x="407" y="144" as="targetPoint" />
          </mxGeometry>
        </mxCell>
        <mxCell id="w-meDZPND8y7SrGFHvBi-3" value="Data Ingestion &lt;br&gt;and Retrieval&amp;nbsp;" style="text;strokeColor=none;fillColor=none;html=1;fontSize=24;fontStyle=1;verticalAlign=middle;align=center;" vertex="1" parent="1">
          <mxGeometry x="475" y="120.5" width="136" height="87" as="geometry" />
        </mxCell>
        <mxCell id="SKhjYYuooIk0SckAg690-22" value="Large Language &lt;br&gt;Model" style="text;strokeColor=none;fillColor=none;html=1;fontSize=24;fontStyle=1;verticalAlign=middle;align=center;" vertex="1" parent="1">
          <mxGeometry x="752" y="144" width="100" height="40" as="geometry" />
        </mxCell>
        <mxCell id="ac6ggybRCfRVmjnilajz-2" value="" style="endArrow=classic;startArrow=classic;html=1;rounded=0;entryX=0;entryY=0.5;entryDx=0;entryDy=0;" edge="1" parent="1" target="SKhjYYuooIk0SckAg690-12">
          <mxGeometry width="50" height="50" relative="1" as="geometry">
            <mxPoint x="179" y="360" as="sourcePoint" />
            <mxPoint x="146" y="275" as="targetPoint" />
          </mxGeometry>
        </mxCell>
        <mxCell id="ac6ggybRCfRVmjnilajz-4" value="" style="edgeStyle=orthogonalEdgeStyle;rounded=0;orthogonalLoop=1;jettySize=auto;html=1;" edge="1" parent="1" source="ac6ggybRCfRVmjnilajz-3" target="SKhjYYuooIk0SckAg690-12">
          <mxGeometry relative="1" as="geometry" />
        </mxCell>
        <mxCell id="ac6ggybRCfRVmjnilajz-3" value="&lt;font style=&quot;font-size: 15px;&quot;&gt;User Interface&lt;/font&gt;" style="rounded=0;whiteSpace=wrap;html=1;fillColor=#f8cecc;strokeColor=#b85450;" vertex="1" parent="1">
          <mxGeometry x="58" y="330" width="120" height="60" as="geometry" />
        </mxCell>
        <mxCell id="ac6ggybRCfRVmjnilajz-15" style="edgeStyle=orthogonalEdgeStyle;rounded=0;orthogonalLoop=1;jettySize=auto;html=1;exitX=0.5;exitY=0;exitDx=0;exitDy=0;entryX=0.5;entryY=1;entryDx=0;entryDy=0;startArrow=classic;startFill=1;" edge="1" parent="1" source="ac6ggybRCfRVmjnilajz-14" target="SKhjYYuooIk0SckAg690-12">
          <mxGeometry relative="1" as="geometry" />
        </mxCell>
        <mxCell id="ac6ggybRCfRVmjnilajz-14" value="Database" style="shape=datastore;whiteSpace=wrap;html=1;fontSize=16;fillColor=#d5e8d4;strokeColor=#82b366;" vertex="1" parent="1">
          <mxGeometry x="284" y="481" width="77" height="60" as="geometry" />
        </mxCell>
        <mxCell id="z8BK6vCvB_kRpvksdnms-1" value="" style="shape=cylinder3;whiteSpace=wrap;html=1;boundedLbl=1;backgroundOutline=1;size=15;rotation=90;fontSize=15;fillColor=#dae8fc;strokeColor=#6c8ebf;" vertex="1" parent="1">
          <mxGeometry x="450.88" y="445.63" width="90" height="103.25" as="geometry" />
        </mxCell>
        <mxCell id="z8BK6vCvB_kRpvksdnms-2" value="&lt;font style=&quot;font-size: 15px;&quot;&gt;Retrieval Pipeline&lt;/font&gt;" style="text;html=1;align=center;verticalAlign=middle;whiteSpace=wrap;rounded=0;" vertex="1" parent="1">
          <mxGeometry x="451" y="484" width="60" height="30" as="geometry" />
        </mxCell>
        <mxCell id="z8BK6vCvB_kRpvksdnms-4" value="" style="endArrow=classic;html=1;rounded=0;exitX=1;exitY=0.75;exitDx=0;exitDy=0;entryX=0.5;entryY=1;entryDx=0;entryDy=0;entryPerimeter=0;startArrow=classic;startFill=1;" edge="1" parent="1" source="SKhjYYuooIk0SckAg690-12" target="z8BK6vCvB_kRpvksdnms-1">
          <mxGeometry width="50" height="50" relative="1" as="geometry">
            <mxPoint x="398" y="341" as="sourcePoint" />
            <mxPoint x="448" y="291" as="targetPoint" />
          </mxGeometry>
        </mxCell>
        <mxCell id="z8BK6vCvB_kRpvksdnms-5" value="" style="endArrow=classic;html=1;rounded=0;exitX=0.5;exitY=0;exitDx=0;exitDy=0;exitPerimeter=0;entryX=0;entryY=0.5;entryDx=0;entryDy=0;startArrow=classicThin;startFill=1;" edge="1" parent="1" source="z8BK6vCvB_kRpvksdnms-1" target="SKhjYYuooIk0SckAg690-10">
          <mxGeometry width="50" height="50" relative="1" as="geometry">
            <mxPoint x="543" y="341" as="sourcePoint" />
            <mxPoint x="593" y="291" as="targetPoint" />
          </mxGeometry>
        </mxCell>
      </root>
    </mxGraphModel>
  </diagram>
</mxfile>
